<svg xmlns="http://www.w3.org/2000/svg" height="24" viewBox="0 96 960 960" width="24"><path d="m480 457-37-37 78-77H333v-54h188l-77-77 36-37 141 141-141 141ZM281.841 950Q253 950 233.5 930.341q-19.5-19.66-19.5-48.5Q214 853 233.659 833.5q19.66-19.5 48.5-19.5Q311 814 330.5 833.659q19.5 19.66 19.5 48.5Q350 911 330.341 930.5q-19.66 19.5-48.5 19.5Zm390 0Q643 950 623.5 930.341q-19.5-19.66-19.5-48.5Q604 853 623.659 833.5q19.66-19.5 48.5-19.5Q701 814 720.5 833.659q19.5 19.66 19.5 48.5Q740 911 720.341 930.5q-19.66 19.5-48.5 19.5ZM56 226v-54h109l172 356h267q9 0 16-4.5t12-12.5l141-257h63L672 548q-9 16-24.949 26-15.949 10-35.051 10H318l-38 68q-8 12-.5 26t22.5 14h438v54H280q-40 0-58-32.5t0-67.5l58-106-148-314H56Z"/></svg>